<svg width="18" height="19" viewBox="0 0 18 19" fill="none" xmlns="http://www.w3.org/2000/svg">
<path d="M7.97168 5.03401C7.97168 5.30825 8.11101 5.57126 8.35902 5.76517C8.60703 5.95909 8.94341 6.06803 9.29415 6.06803C9.64489 6.06803 9.98126 5.95909 10.2293 5.76517C10.4773 5.57126 10.6166 5.30825 10.6166 5.03401C10.6166 4.75978 10.4773 4.49677 10.2293 4.30286C9.98126 4.10894 9.64489 4 9.29415 4C8.94341 4 8.60703 4.10894 8.35902 4.30286C8.11101 4.49677 7.97168 4.75978 7.97168 5.03401ZM9.95538 7.7483H8.63291C8.54199 7.7483 8.4676 7.80646 8.4676 7.87755V15.3741C8.4676 15.4452 8.54199 15.5034 8.63291 15.5034H9.95538C10.0463 15.5034 10.1207 15.4452 10.1207 15.3741V7.87755C10.1207 7.80646 10.0463 7.7483 9.95538 7.7483Z" fill="#FFFCFC"/>
<rect x="0.805556" y="0.805556" width="16.3248" height="17.3889" rx="7.25" stroke="white" stroke-width="1.61111"/>
</svg>
