<svg width="50" height="49" viewBox="0 0 50 49" fill="none" xmlns="http://www.w3.org/2000/svg">
<path d="M48.3839 17.2543L33.3949 15.0188L26.6944 1.07841C26.5114 0.696736 26.2103 0.387759 25.8384 0.199949C24.9057 -0.272605 23.7722 0.12119 23.3058 1.07841L16.6053 15.0188L1.61629 17.2543C1.20304 17.3149 0.825219 17.5148 0.535947 17.8177C0.186233 18.1866 -0.00647562 18.6829 0.00016616 19.1975C0.00680794 19.7121 0.212257 20.2029 0.571368 20.5622L11.4161 31.4127L8.854 46.7344C8.79392 47.0908 8.83235 47.4574 8.96494 47.7925C9.09753 48.1276 9.31897 48.4179 9.60415 48.6305C9.88934 48.8431 10.2268 48.9694 10.5784 48.9951C10.93 49.0208 11.2815 48.9449 11.5932 48.7761L25.0001 41.5423L38.407 48.7761C38.773 48.976 39.1981 49.0426 39.6054 48.9699C40.6326 48.7882 41.3233 47.7885 41.1462 46.7344L38.5841 31.4127L49.4289 20.5622C49.724 20.2653 49.9189 19.8776 49.9779 19.4535C50.1373 18.3933 49.4171 17.4118 48.3839 17.2543ZM34.0207 29.886L36.1519 42.6268L25.0001 36.6169L13.8484 42.6329L15.9795 29.8921L6.95897 20.8651L19.4272 19.0052L25.0001 7.41548L30.573 19.0052L43.0413 20.8651L34.0207 29.886Z" fill="#FFCF3A"/>
</svg>
