<svg width="14" height="14" viewBox="0 0 14 14" fill="none" xmlns="http://www.w3.org/2000/svg">
<path fill-rule="evenodd" clip-rule="evenodd" d="M2.7373 3.3687C2.7373 2.52848 3.41759 1.84735 4.25677 1.84735H8.66978C8.98127 1.84735 9.27368 1.99759 9.45531 2.25095L11.1202 4.5733C11.2381 4.73785 11.3016 4.93529 11.3016 5.13784V11.1138C11.3016 11.954 10.6213 12.6351 9.78212 12.6351H4.25677C3.41759 12.6351 2.7373 11.954 2.7373 11.1138V3.3687ZM4.25677 2.67718C3.87533 2.67718 3.56611 2.98678 3.56611 3.3687V11.1138C3.56611 11.4957 3.87533 11.8053 4.25677 11.8053H9.78212C10.1636 11.8053 10.4728 11.4957 10.4728 11.1138V5.52462H8.67705C8.44818 5.52462 8.26265 5.33885 8.26265 5.1097V2.67718H4.25677Z" fill="white"/>
</svg>
