<svg width="24" height="25" viewBox="0 0 24 25" fill="none" xmlns="http://www.w3.org/2000/svg">
<g id="Hand-OneFinger" clip-path="url(#clip0_34_29)">
<path id="Vector" d="M13.1046 8.62245C13.7762 8.72306 14.4068 8.22297 14.5132 7.50536C14.6197 6.78774 14.1617 6.12457 13.4902 6.02396L9.43741 5.41677C6.0801 4.91378 2.92673 7.41457 2.39444 11.0022C1.86216 14.5899 4.15247 17.9062 7.50978 18.4092L10.3467 18.8342C11.0183 18.9349 11.6488 18.4348 11.7553 17.7172C11.8618 16.9995 11.4038 16.3364 10.7322 16.2358L11.5428 16.3572C12.2143 16.4578 12.8449 15.9577 12.9514 15.2401C13.0579 14.5225 12.5999 13.8593 11.9283 13.7587L12.7389 13.8801C13.4104 13.9808 14.041 13.4807 14.1475 12.7631C14.2539 12.0454 13.7959 11.3823 13.1244 11.2817L19.2035 12.1924C19.8751 12.293 20.5057 11.793 20.6121 11.0753C20.7186 10.3577 20.2606 9.69456 19.5891 9.59395L9.45716 8.07598L13.1046 8.62245V8.62245Z" stroke="#FFC107" stroke-width="0.864865" stroke-miterlimit="10" stroke-linecap="round" stroke-linejoin="round"/>
</g>
<defs>
<clipPath id="clip0_34_29">
<rect width="22.2261" height="19.9634" fill="white" transform="matrix(-0.146759 0.989172 -0.988962 -0.148167 23.0273 2.95789)"/>
</clipPath>
</defs>
</svg>
