<svg width="18" height="19" viewBox="0 0 18 19" fill="none" xmlns="http://www.w3.org/2000/svg">
<path d="M17.055 15.5055C16.6097 14.439 15.9635 13.4702 15.1524 12.6531C14.3438 11.8337 13.3859 11.1804 12.3316 10.7293C12.3221 10.7245 12.3127 10.7221 12.3032 10.7173C13.7739 9.64322 14.7299 7.89359 14.7299 5.9196C14.7299 2.6495 12.1097 0 8.87573 0C5.64178 0 3.02156 2.6495 3.02156 5.9196C3.02156 7.89359 3.97759 9.64322 5.44821 10.7197C5.43877 10.7245 5.42933 10.7269 5.41988 10.7317C4.36236 11.1828 3.41342 11.8296 2.59903 12.6555C1.78867 13.4732 1.14258 14.4418 0.696422 15.5079C0.25812 16.5516 0.0217334 17.6706 5.90279e-05 18.8043C-0.000571015 18.8297 0.003848 18.8551 0.0130558 18.8788C0.0222636 18.9025 0.0360739 18.9242 0.0536728 18.9424C0.0712717 18.9606 0.0923033 18.9751 0.115528 18.985C0.138753 18.9949 0.163701 19 0.188903 19H1.60523C1.7091 19 1.79172 18.9165 1.79408 18.8138C1.84129 16.9711 2.57306 15.2454 3.86664 13.9373C5.20507 12.5839 6.98257 11.8392 8.87573 11.8392C10.7689 11.8392 12.5464 12.5839 13.8848 13.9373C15.1784 15.2454 15.9102 16.9711 15.9574 18.8138C15.9597 18.9188 16.0424 19 16.1462 19H17.5626C17.5878 19 17.6127 18.9949 17.6359 18.985C17.6592 18.9751 17.6802 18.9606 17.6978 18.9424C17.7154 18.9242 17.7292 18.9025 17.7384 18.8788C17.7476 18.8551 17.752 18.8297 17.7514 18.8043C17.7278 17.6633 17.4941 16.5534 17.055 15.5055ZM8.87573 10.0251C7.79224 10.0251 6.77248 9.59786 6.0053 8.82211C5.23812 8.04636 4.81558 7.0152 4.81558 5.9196C4.81558 4.824 5.23812 3.79284 6.0053 3.01709C6.77248 2.24133 7.79224 1.81407 8.87573 1.81407C9.95922 1.81407 10.979 2.24133 11.7462 3.01709C12.5133 3.79284 12.9359 4.824 12.9359 5.9196C12.9359 7.0152 12.5133 8.04636 11.7462 8.82211C10.979 9.59786 9.95922 10.0251 8.87573 10.0251Z" fill="white"/>
</svg>
