<svg width="28" height="27" viewBox="0 0 28 27" fill="none" xmlns="http://www.w3.org/2000/svg">
<path d="M25.3803 23.821L17.5037 15.9952C18.726 14.4252 19.3872 12.5057 19.3872 10.4867C19.3872 8.06997 18.4379 5.8039 16.7212 4.09531C15.0046 2.38671 12.7177 1.44653 10.2883 1.44653C7.85893 1.44653 5.57208 2.38973 3.85543 4.09531C2.13574 5.80089 1.18945 8.06997 1.18945 10.4867C1.18945 12.9004 2.13877 15.1725 3.85543 16.8781C5.57208 18.5867 7.8559 19.5269 10.2883 19.5269C12.3204 19.5269 14.2494 18.87 15.8296 17.6586L23.7062 25.4814C23.7292 25.5043 23.7567 25.5225 23.7869 25.535C23.817 25.5474 23.8494 25.5538 23.8821 25.5538C23.9147 25.5538 23.9471 25.5474 23.9773 25.535C24.0075 25.5225 24.0349 25.5043 24.058 25.4814L25.3803 24.1705C25.4035 24.1476 25.4218 24.1203 25.4343 24.0903C25.4468 24.0604 25.4532 24.0282 25.4532 23.9958C25.4532 23.9633 25.4468 23.9311 25.4343 23.9012C25.4218 23.8712 25.4035 23.8439 25.3803 23.821ZM15.0925 15.2599C13.8066 16.5346 12.102 17.2367 10.2883 17.2367C8.47462 17.2367 6.7701 16.5346 5.48413 15.2599C4.20118 13.9822 3.4945 12.2887 3.4945 10.4867C3.4945 8.6847 4.20118 6.98816 5.48413 5.7135C6.7701 4.43883 8.47462 3.73671 10.2883 3.73671C12.102 3.73671 13.8096 4.43582 15.0925 5.7135C16.3755 6.99118 17.0822 8.6847 17.0822 10.4867C17.0822 12.2887 16.3755 13.9853 15.0925 15.2599Z" fill="black"/>
</svg>
