<svg width="22" height="19" viewBox="0 0 22 19" fill="none" xmlns="http://www.w3.org/2000/svg">
<path d="M20.607 6.69044L14.4297 5.8236L11.6683 0.418161C11.5929 0.270163 11.4688 0.150355 11.3156 0.0775313C10.9311 -0.105704 10.464 0.0469921 10.2718 0.418161L7.5104 5.8236L1.3331 6.69044C1.16279 6.71393 1.00708 6.79145 0.887867 6.90891C0.743743 7.05195 0.664323 7.24438 0.667061 7.44392C0.669798 7.64346 0.754468 7.83379 0.902465 7.97309L5.37182 12.1804L4.31591 18.1215C4.29115 18.2597 4.30699 18.4018 4.36163 18.5318C4.41628 18.6617 4.50754 18.7743 4.62507 18.8567C4.7426 18.9391 4.88169 18.9881 5.02658 18.9981C5.17147 19.0081 5.31636 18.9787 5.44481 18.9132L10.9701 16.1083L16.4953 18.9132C16.6462 18.9907 16.8214 19.0165 16.9892 18.9883C17.4126 18.9179 17.6972 18.5303 17.6242 18.1215L16.5683 12.1804L21.0377 7.97309C21.1593 7.85798 21.2396 7.70763 21.2639 7.54319C21.3296 7.13208 21.0328 6.75152 20.607 6.69044ZM14.6876 11.5885L15.5659 16.5288L10.9701 14.1984L6.3742 16.5311L7.2525 11.5908L3.53493 8.09055L8.67335 7.36935L10.9701 2.87539L13.2668 7.36935L18.4052 8.09055L14.6876 11.5885Z" fill="white"/>
</svg>
